<svg xmlns="http://www.w3.org/2000/svg" viewBox="0 0 24 24" id="Human-Resources-Hierarchy-Man--Streamline-Ultimate" height="24" width="24">
  <desc>
    Human Resources Hierarchy Man Streamline Icon: https://streamlinehq.com
  </desc>
  <path d="M15.5 20H13a0.5 0.5 0 0 1 -0.5 -0.5v-15A0.5 0.5 0 0 1 13 4h2.5" stroke="#00303e" stroke-linecap="round" stroke-linejoin="round" fill="none" stroke-width="1"></path>
  <path d="M9.5 12h3" stroke="#00303e" stroke-linecap="round" stroke-linejoin="round" fill="none" stroke-width="1"></path>
  <path d="M20 4.5a1.75 1.75 0 1 0 -1.75 -1.75A1.75 1.75 0 0 0 20 4.5" fill="#dff9ff" stroke="#00303e" stroke-linecap="round" stroke-linejoin="round" stroke-width="1"></path>
  <path d="M23.5 8a3.612 3.612 0 0 0 -7 0Z" fill="#dff9ff" stroke="#00303e" stroke-linecap="round" stroke-linejoin="round" stroke-width="1"></path>
  <path d="M20 19.5a1.75 1.75 0 1 0 -1.75 -1.75A1.75 1.75 0 0 0 20 19.5" fill="#dff9ff" stroke="#00303e" stroke-linecap="round" stroke-linejoin="round" stroke-width="1"></path>
  <path d="M23.5 23a3.612 3.612 0 0 0 -7 0Z" fill="#dff9ff" stroke="#00303e" stroke-linecap="round" stroke-linejoin="round" stroke-width="1"></path>
  <path d="M0.5 17a4.5 4.5 0 0 1 9 0Z" fill="#9feaff" stroke="#00303e" stroke-linecap="round" stroke-linejoin="round" stroke-width="1"></path>
  <path d="m2.642 7.35 -0.01 -0.01" stroke="#00303e" stroke-linecap="round" stroke-linejoin="round" fill="none" stroke-width="1"></path>
  <path d="M7.722 8.36a4.577 4.577 0 0 1 -5.08 -1.01 2.744 2.744 0 0 1 5.08 1.01" fill="#9feaff" stroke="#00303e" stroke-linecap="round" stroke-linejoin="round" stroke-width="1"></path>
  <path d="M7.752 8.75a2.75 2.75 0 0 1 -5.5 0 2.68 2.68 0 0 1 0.39 -1.4 4.577 4.577 0 0 0 5.08 1.01 2.466 2.466 0 0 1 0.03 0.39" fill="#dff9ff" stroke="#00303e" stroke-linecap="round" stroke-linejoin="round" stroke-width="1"></path>
</svg>